<svg width="82" height="37" viewBox="0 0 82 37" fill="none" xmlns="http://www.w3.org/2000/svg">
<path fill-rule="evenodd" clip-rule="evenodd" d="M50.6356 16.4894L50.69 12.8011C50.69 12.8011 50.5662 11.7897 51.9896 11.1382C53.4132 10.4869 54.919 11.1382 55.1254 12.2581C55.3317 13.3778 55.2137 17.0026 55.2137 17.0026C55.2137 17.0026 56.4055 17.1572 56.859 17.5388C57.3125 17.9207 58.2326 19.0142 58.7682 19.5135C59.3037 20.0126 59.4728 20.2698 59.613 20.9895C59.7532 21.709 59.4189 24.1715 59.4189 25.9893C59.4189 27.8072 59.4189 28.5958 59.4189 28.5958C59.4189 28.5958 61.1469 27.4869 62.3789 27.4672C63.6113 27.4477 65.188 28.6896 65.6019 30.3883C66.0161 32.087 65.7316 36.8533 65.7316 36.8533L68.909 36.9065C68.909 36.9065 68.7735 30.5748 69.046 29.7455C69.3185 28.9162 70.3146 27.8371 71.4796 27.4862C72.6448 27.1355 73.6756 27.462 74.3845 28.5207C75.0932 29.5793 75.142 30.7183 75.142 31.9155C75.142 33.1128 75.1984 36.9029 75.1984 36.9029L81.9905 36.8836C81.9905 36.8836 82.1774 34.208 80.8912 32.6098C79.6051 31.0116 79.5577 30.4476 79.5577 28.9433C79.5577 27.4391 77.9154 24.4344 77.1613 23.159C76.4076 21.8836 73.7351 21.4466 72.6045 19.8526C71.4737 18.2583 69.1437 11.6156 68.7436 10.0356C68.3435 8.45571 68.4995 6.52866 68.56 5.3638C68.6207 4.19881 68.56 3.81048 68.2573 2.82482C67.9547 1.8394 68.1444 1.44604 68.0447 1.11217C67.9454 0.778423 67.9794 0.535808 67.1329 0.506739C66.2862 0.477915 65.5421 0.521213 65.3668 0.708631C65.1917 0.895804 65.323 1.39968 65.1334 1.73109C64.9434 2.06251 64.7046 2.57521 63.1159 2.3261C61.5271 2.07711 60.5025 2.67775 59.9975 2.23815C59.4928 1.79868 59.7245 1.19276 59.3722 0.679072C59.0196 0.165633 59.0699 0.14895 58.4488 0.0662802C57.8279 -0.0166354 55.9477 -0.033071 55.6792 0.082839C55.4106 0.198749 55.2595 0.314661 55.1922 0.61296C55.1252 0.911137 55.4677 2.18161 54.2381 2.28268C53.0083 2.38362 49.9048 2.13623 49.8655 2.36878C49.8263 2.60158 49.6551 8.13141 49.6551 8.99945C49.6551 9.86773 49.6534 13.7638 49.6534 14.1674C49.6534 14.5713 49.6359 14.8607 49.7394 15.1592C49.8428 15.4577 50.2626 16.478 50.3816 16.5502C50.5009 16.6226 50.6356 16.4894 50.6356 16.4894ZM62.3191 10.114C64.1304 10.114 65.6124 11.0533 65.6124 11.4379V17.265C65.6124 17.6499 64.1306 17.9644 62.3194 17.9644C60.5083 17.9644 59.0259 17.6499 59.0259 17.265V11.4379C59.0259 11.0533 60.5078 10.114 62.3191 10.114ZM3.52772 26.9684C6.76501 25.1123 24.9536 23.7259 58.0939 22.8098C58.427 22.7245 58.6649 22.435 58.6807 22.0957C58.6968 21.7565 58.4869 21.4466 58.1631 21.3314C23.276 22.3928 4.25144 24.107 1.08947 26.474C0.954225 33.4278 0.886616 36.9046 0.886616 36.9046L1.68658 36.9058V31.6382C1.68658 30.9442 1.84045 29.2491 2.02846 29.2491C2.21655 29.2491 2.37044 30.9442 2.37044 31.6382V36.907L3.16857 36.9083V30.9074C3.16857 30.1558 3.44171 28.3206 3.77555 28.3206C4.10945 28.3206 4.38261 30.1558 4.38261 30.9074V36.9102L5.07917 36.9112V30.6767C5.07917 29.9252 5.60563 28.09 6.24914 28.09C6.89264 28.09 7.41907 29.9252 7.41907 30.6767V36.9149L9.1906 36.9176V30.308C9.1906 29.5564 9.81378 27.7212 10.5755 27.7212C11.3371 27.7212 11.9604 29.5564 11.9604 30.308V36.9219L13.8407 36.9248L13.864 29.9849C13.8674 28.9531 14.696 27.2575 15.7416 27.2575C16.7871 27.2575 17.589 29.0451 17.596 30.0769L17.6427 36.9307L20.1834 36.9346V28.9194C20.1834 27.7503 21.1528 26.7939 22.3372 26.7939C23.5218 26.7939 24.4909 27.7503 24.4909 28.9194V36.9414L27.4191 36.9458V29.1347C27.4191 27.5951 28.6956 26.3353 30.2557 26.3353C31.8159 26.3353 33.0925 27.5951 33.0925 29.1347V36.9549L36.2932 36.9598V29.5689C36.2932 27.7902 37.7678 26.3353 39.57 26.3353C41.372 26.3353 42.8466 27.7902 42.8466 29.5689V36.9697L46.9846 36.9763V29.2887C46.9846 27.5101 48.4592 26.0551 50.2612 26.0551C52.0635 26.0551 53.5378 27.5101 53.5378 29.2887V36.9866L62.2722 37C62.2722 37 62.1681 35.0863 61.4015 33.8674C60.6349 32.6485 60.0386 32.4805 59.6128 31.4298C59.187 30.379 59.1017 29.4124 58.974 29.0341C58.8462 28.6559 58.7898 25.3743 58.7898 24.8023C58.7898 24.2303 58.9332 24.0446 58.3516 23.8342C28.9328 24.4292 10.6581 25.4739 3.52772 26.9684ZM0.652752 16.598C0.652752 16.598 0.940451 16.7649 0.940451 17.1659C0.940451 17.5666 1.07668 23.2374 0.940451 23.5445C0.804168 23.852 0.35657 24.0056 0.317647 24.3128C0.278748 24.6201 0.228794 24.9875 0.228794 25.5198C0.228794 26.0521 0.263168 26.154 0.263168 26.154C5.73811 22.4486 35.5043 21.0358 43.0851 20.909C49.1419 20.6796 54.2345 20.5424 58.3625 20.4977C58.7723 20.5263 59.0398 20.6962 59.1649 21.0069C59.304 20.6957 59.2003 20.3884 58.8537 20.0849C58.2384 19.4587 57.6367 18.8129 57.0484 18.1471C56.6771 17.6877 55.9469 17.4605 54.8576 17.4655C52.8687 17.5581 50.7489 18.1538 49.9781 16.3277C48.8497 13.654 47.1211 6.91147 46.3184 6.06122C46.2724 5.59832 45.4554 5.4304 43.8675 5.5571C38.5871 5.70307 7.93722 7.41326 0.652752 16.598ZM1.63129 17.3604L1.63362 22.5943C1.62273 23.1297 1.69961 23.3654 1.86445 23.3013C2.20502 23.2317 2.37534 23.1968 2.37534 23.1968C2.48239 23.1065 2.52406 22.718 2.50026 22.031C2.48843 19.0836 2.48251 17.6098 2.48251 17.6098C2.43026 16.2884 2.26584 15.6416 1.9892 15.6695C1.79374 15.742 1.67454 16.3057 1.63129 17.3604ZM3.42296 16.4446L3.4261 21.6782C3.41149 22.2138 3.51419 22.4493 3.73433 22.3852C4.18917 22.3156 4.41661 22.2809 4.41661 22.2809C4.55951 22.1904 4.61518 21.8019 4.58341 21.1149C4.56758 18.1675 4.55971 16.6939 4.55971 16.6939C4.48995 15.3723 4.27034 14.7255 3.90086 14.7534C3.63994 14.8259 3.48068 15.3896 3.42296 16.4446ZM5.61163 15.4957L5.61683 21.131C5.59273 21.7077 5.76189 21.9615 6.12446 21.8922C6.87375 21.8175 7.2484 21.78 7.2484 21.78C7.48387 21.6826 7.57549 21.2643 7.52311 20.5248C7.49717 17.3511 7.48414 15.7644 7.48414 15.7644C7.36922 14.3415 7.00741 13.6449 6.3988 13.675C5.96906 13.7531 5.70668 14.36 5.61163 15.4957ZM8.92704 14.2372L8.93566 20.2535C8.89561 20.8691 9.1763 21.1401 9.77782 21.0661C11.021 20.9863 11.6426 20.9463 11.6426 20.9463C12.0333 20.8424 12.1852 20.3955 12.0983 19.6063C12.0553 16.2179 12.0336 14.524 12.0336 14.524C11.843 13.0047 11.2428 12.2612 10.233 12.2933C9.52005 12.3764 9.08475 13.0247 8.92704 14.2372ZM13.5555 13.1803L13.5657 19.4852C13.5185 20.1302 13.8486 20.4141 14.5559 20.3367C16.0178 20.253 16.7488 20.211 16.7488 20.211C17.2081 20.1022 17.3867 19.6341 17.2846 18.8068C17.2339 15.2561 17.2086 13.4809 17.2086 13.4809C16.9844 11.8889 16.2786 11.1096 15.0912 11.1434C14.2529 11.2304 13.7411 11.9096 13.5555 13.1803ZM24.2704 18.116L24.1704 12.1608C24.2075 11.3178 23.7728 10.5225 23.0384 10.0901C22.3041 9.65762 21.3887 9.65762 20.6542 10.0901C19.92 10.5225 19.4853 11.3178 19.5223 12.1608C19.46 16.3474 19.4287 18.4408 19.4287 18.4408C19.5465 19.3606 20.0595 19.7411 20.968 19.5823C22.6823 19.4582 23.5391 19.3961 23.5391 19.3961C24.0885 19.1592 24.3321 18.7325 24.2704 18.116ZM27.0054 11.045L27.0761 17.7641C27.107 18.6831 27.5489 19.055 28.4019 18.88C30.8063 18.7517 32.0086 18.6877 32.0086 18.6877C32.7238 18.565 33.0359 18.0198 32.9443 17.0524C32.8509 13.2891 32.8042 11.4077 32.8042 11.4077C32.812 9.88625 31.6167 8.62289 30.0779 8.52649C28.5396 8.43045 27.1918 9.53484 27.0054 11.045ZM42.9216 16.6485L42.6975 10.5135C42.5345 9.04287 40.9632 7.92964 39.4645 7.92964C37.9656 7.92964 36.7069 9.04287 36.5437 10.5135C36.4907 15.1146 36.4643 17.4151 36.4643 17.4151C36.649 18.0066 37.0353 18.2592 37.6236 18.173C40.5881 18.0743 42.0704 18.025 42.0704 18.025C42.7154 17.9881 42.999 17.5291 42.9216 16.6485Z" fill="black"/>
</svg>
